<?xml version="1.0" encoding="UTF-8"?>
<svg width="237px" height="145px" viewBox="0 0 237 145" version="1.1" xmlns="http://www.w3.org/2000/svg" xmlns:xlink="http://www.w3.org/1999/xlink">
    <!-- Generator: Sketch 46.2 (44496) - http://www.bohemiancoding.com/sketch -->
    <title>Page 1</title>
    <desc>Created with Sketch.</desc>
    <defs></defs>
    <g id="Page-1" stroke="none" stroke-width="1" fill="none" fill-rule="evenodd">
        <g id="Homepage---Malmo-Copy-2" transform="translate(-164.000000, -3474.000000)">
            <g id="Page-1" transform="translate(166.000000, 3474.000000)">
                <path d="M77.3667954,104.327044 C77.3667954,125.685841 60.047246,143 38.6833977,143 C17.3190887,143 0,125.685841 0,104.327044 C0,82.9682475 17.3190887,65.6540881 38.6833977,65.6540881 C60.047246,65.6540881 77.3667954,82.9682475 77.3667954,104.327044" id="Fill-1" fill="#00B5E2"></path>
                <path d="M77.3667954,104.327044 C77.3667954,125.685841 60.047246,143 38.6833977,143 C17.3190887,143 0,125.685841 0,104.327044 C0,82.9682475 17.3190887,65.6540881 38.6833977,65.6540881 C60.047246,65.6540881 77.3667954,82.9682475 77.3667954,104.327044 Z" id="Stroke-3" stroke="#FFFFFF" stroke-width="2.16"></path>
                <path d="M72.8687259,104.327044 C72.8687259,123.20192 57.5633694,138.503145 38.6833977,138.503145 C19.8034259,138.503145 4.4980695,123.20192 4.4980695,104.327044 C4.4980695,85.4517097 19.8034259,70.1509434 38.6833977,70.1509434 C57.5633694,70.1509434 72.8687259,85.4517097 72.8687259,104.327044 Z" id="Stroke-5" stroke="#FFFFFF" stroke-width="1.08" stroke-linecap="round"></path>
                <path d="M225.803089,104.327044 C225.803089,125.685841 208.483897,143 187.119921,143 C165.755485,143 148.436293,125.685841 148.436293,104.327044 C148.436293,82.9682475 165.755485,65.6540881 187.119921,65.6540881 C208.483897,65.6540881 225.803089,82.9682475 225.803089,104.327044" id="Fill-7" fill="#00B5E2"></path>
                <path d="M225.803089,104.327044 C225.803089,125.685841 208.483897,143 187.119921,143 C165.755485,143 148.436293,125.685841 148.436293,104.327044 C148.436293,82.9682475 165.755485,65.6540881 187.119921,65.6540881 C208.483897,65.6540881 225.803089,82.9682475 225.803089,104.327044 Z" id="Stroke-9" stroke="#FFFFFF" stroke-width="2.16"></path>
                <path d="M221.305019,104.327044 C221.305019,123.20192 205.999307,138.503145 187.119921,138.503145 C168.239617,138.503145 152.934363,123.20192 152.934363,104.327044 C152.934363,85.4517097 168.239617,70.1509434 187.119921,70.1509434 C205.999307,70.1509434 221.305019,85.4517097 221.305019,104.327044 Z" id="Stroke-11" stroke="#FFFFFF" stroke-width="1.08" stroke-linecap="round"></path>
                <path d="M72.3139872,57.0498361 L93.4837799,77.3852635 L100.663619,70.2400355 L84.4733246,52.2426533 L66.4357971,32.1799902 L61.2822838,46.4525072 L72.3139872,57.0498361 Z M146.427186,53.3010523 L134.542488,96.2634949 C134.402168,96.7736055 133.630872,97.0670685 133.12406,97.0670685 C133.033129,96.1765599 133.22653,97.0955869 133.12406,97.0670685 C132.5097,96.8987182 131.979809,96.8780194 132.148746,96.2657947 L140.181581,67.249288 L140.181581,67.248828 L132.493083,72.9865371 C128.159793,76.2178508 123.109673,77.7964798 118.097864,77.7964798 C112.425538,77.7964798 106.8026,75.7748963 102.320682,71.8393633 L102.321605,71.8398232 L95.1468438,78.9832113 L116.934227,99.9120045 C117.393035,100.352659 117.40596,101.080797 116.963768,101.538011 C116.737595,101.772137 116.435724,101.88943 116.13339,101.88943 C115.844904,101.88943 115.556418,101.782717 115.332092,101.567449 L60.4279037,48.8264303 L40.0238681,105.36453 C39.8544692,105.834163 39.4108932,106.125786 38.9377762,106.125786 C38.8080729,106.125786 38.6765233,106.104167 38.5477431,106.05771 C37.9476923,105.842443 37.6365891,105.18422 37.8521458,104.586715 L69.0880217,18.0353459 C69.5080573,16.8619535 69.1291021,15.553789 68.1431725,14.7828734 L63.4170799,11.0869865 C62.1482032,10.0952837 61.4202954,8.60450969 61.4202954,6.99736236 C61.4202954,4.13080766 63.7609552,1.79874214 66.6370449,1.79874214 L89.9508653,1.79874214 C90.5883039,1.79874214 91.1048092,2.31345246 91.1048092,2.94867583 C91.1048092,3.5838992 90.5883039,4.09860952 89.9508653,4.09860952 L66.6370449,4.09860952 C65.0335245,4.09860952 63.7281832,5.39895453 63.7281832,6.99736236 C63.7281832,7.89339069 64.1339099,8.72456276 64.8415082,9.27791086 L69.5676008,12.9737977 C71.3354428,14.356018 72.0158081,16.7014228 71.2606672,18.8104012 L67.3229491,29.721432 L101.976807,68.2649094 C102.22052,68.5362937 102.46931,68.7998585 102.723639,69.0560638 L103.472318,69.7773022 C111.103118,76.7877579 122.626863,77.4721985 131.109735,71.1457233 L141.181358,63.6292967 L147.889464,39.3408573 C148.058401,38.7290926 148.692609,38.3675534 149.308353,38.5372836 C149.922713,38.7056339 150.283667,39.3385574 150.114729,39.9507821 L147.195251,50.5209726 L147.193405,50.5205126 L188.679534,104.274393 C189.068182,104.778064 188.973559,105.499762 188.468593,105.88706 C188.259037,106.047591 188.011631,106.125326 187.766072,106.125326 C187.419889,106.125326 187.07786,105.970775 186.850763,105.676852 L146.427648,53.3015123 L146.427186,53.3010523 Z" id="Fill-13" fill="#FFFFFF"></path>
                <path d="M81.4871311,120.515723 C81.3547137,120.515723 81.2204635,120.492324 81.0889624,120.443691 C80.4960621,120.223465 80.1931972,119.563706 80.4131293,118.969556 C82.243606,114.023196 83.172361,108.815318 83.172361,103.490904 C83.172361,78.9334494 63.2199364,58.9543946 38.695215,58.9543946 C32.6906101,58.9543946 26.8660747,60.132143 21.3833504,62.4536885 C20.8014467,62.6982307 20.1288209,62.4279955 19.8823137,61.8439387 C19.6358065,61.2607995 19.9084306,60.5877349 20.4912507,60.3408986 C26.2575958,57.8986879 32.3822469,56.6603774 38.695215,56.6603774 C64.4836297,56.6603774 85.4633205,77.6680695 85.4633205,103.490904 C85.4633205,109.088306 84.4869135,114.564125 82.561133,119.766956 C82.3902274,120.22943 81.9526541,120.515723 81.4871311,120.515723" id="Fill-15" fill="#FFFFFF"></path>
                <path d="M127.745174,30.3355181 L127.745174,30.3355181 C127.745174,31.691045 128.858129,32.7900709 130.231305,32.7900709 L134.636793,32.7900709 C137.036809,32.7900709 138.981907,34.7112865 138.981907,37.0808011 C138.981907,39.4503158 140.927005,41.3710692 143.32702,41.3710692 L157.172974,41.3710692 C158.19841,41.3710692 159.173767,40.9320134 159.846782,40.1671321 L165.560859,33.6723419 C166.120613,33.0359421 166.428571,32.2211471 166.428571,31.3786222 C166.428571,29.4467768 164.843382,27.8805031 162.887051,27.8805031 L130.231305,27.8805031 C128.858129,27.8805031 127.745174,28.979529 127.745174,30.3355181" id="Fill-17" fill="#FFFFFF"></path>
                <path d="M178.546744,110.06882 C180.669936,110.06882 182.390932,108.334199 182.390932,106.194663 C182.390932,104.054196 180.669936,102.32004 178.546744,102.32004 L147.830178,102.892507 C144.012773,102.892507 140.918028,106.011753 140.918028,109.859846 C140.918028,111.142078 141.262042,112.343793 141.861874,113.375629 C143.351064,115.938698 146.396862,117.141809 149.275963,116.508372 L178.546744,110.06882 Z M198.545296,107.601162 C197.454609,111.539547 194.25689,114.523355 190.276943,115.315966 L129.893404,127.381517 C125.816025,128.193675 121.485598,127.527658 118.092092,125.108405 C114.135695,122.28889 111.552124,117.64167 111.552124,112.385681 C111.552124,103.785648 118.469354,96.8141207 127.001835,96.8141207 L195.705445,94.4339623 C198.970119,94.4837622 201.305262,97.6323292 200.427909,100.802305 L198.545296,107.601162 Z" id="Fill-19" fill="#00B5E2"></path>
                <path d="M178.546744,110.06882 C180.669936,110.06882 182.390932,108.334199 182.390932,106.194663 C182.390932,104.054196 180.669936,102.32004 178.546744,102.32004 L147.830178,102.892507 C144.012773,102.892507 140.918028,106.011753 140.918028,109.859846 C140.918028,111.142078 141.262042,112.343793 141.861874,113.375629 C143.351064,115.938698 146.396862,117.141809 149.275963,116.508372 L178.546744,110.06882 Z M198.545296,107.601162 C197.454609,111.539547 194.25689,114.523355 190.276943,115.315966 L129.893404,127.381517 C125.816025,128.193675 121.485598,127.527658 118.092092,125.108405 C114.135695,122.28889 111.552124,117.64167 111.552124,112.385681 C111.552124,103.785648 118.469354,96.8141207 127.001835,96.8141207 L195.705445,94.4339623 C198.970119,94.4837622 201.305262,97.6323292 200.427909,100.802305 L198.545296,107.601162 Z" id="Stroke-21" stroke="#FFFFFF" stroke-width="1.08"></path>
                <path d="M136.741313,112.421384 C136.741313,117.884776 132.310427,122.314465 126.84556,122.314465 C121.380225,122.314465 116.949807,117.884776 116.949807,112.421384 C116.949807,106.957991 121.380225,102.528302 126.84556,102.528302 C132.310427,102.528302 136.741313,106.957991 136.741313,112.421384" id="Fill-23" fill="#FFFFFF"></path>
                <path d="M95.1901803,5.39622642 L79.3353758,5.39622642 C77.7512281,5.39622642 76.4671815,4.18812893 76.4671815,2.69811321 C76.4671815,1.20766509 77.7512281,0 79.3353758,0 L95.1901803,0 C96.7738684,0 98.0579151,1.20766509 98.0579151,2.69811321 C98.0579151,4.18812893 96.7738684,5.39622642 95.1901803,5.39622642" id="Fill-25" fill="#FFFFFF"></path>
                <path d="M233,103.427673 C233,78.5921201 212.569359,58.4591195 187.366645,58.4591195 C176.752118,58.4591195 166.983864,62.0307012 159.23166,68.0202201 L187.366645,103.427673 L233,103.427673 Z" id="Fill-27" fill="#00B5E2"></path>
                <path d="M233,103.427673 C233,78.5921201 212.569359,58.4591195 187.366645,58.4591195 C176.752118,58.4591195 166.983864,62.0307012 159.23166,68.0202201 L187.366645,103.427673 L233,103.427673 Z" id="Stroke-29" stroke="#FFFFFF" stroke-width="2.16"></path>
                <path d="M44.0810811,105.676343 C44.0810811,108.407881 41.865614,110.622642 39.1327188,110.622642 C36.4003094,110.622642 34.1853282,108.407881 34.1853282,105.676343 C34.1853282,102.94432 36.4003094,100.72956 39.1327188,100.72956 C41.865614,100.72956 44.0810811,102.94432 44.0810811,105.676343" id="Fill-31" fill="#FFFFFF"></path>
                <path d="M211.409266,78.6949686 C211.409266,83.4136837 207.582924,87.2389937 202.862934,87.2389937 C198.142945,87.2389937 194.316602,83.4136837 194.316602,78.6949686 C194.316602,73.9762534 198.142945,70.1509434 202.862934,70.1509434 C207.582924,70.1509434 211.409266,73.9762534 211.409266,78.6949686" id="Fill-33" fill="#FFFFFF"></path>
            </g>
        </g>
    </g>
</svg>