<svg id="flat.2" xmlns="http://www.w3.org/2000/svg" viewBox="0 0 356 488.88"><defs><style>.cls-1{fill:#e6e6e6;}.cls-2{fill:#b3b3b3;}.cls-3{fill:#f2f2f2;}.cls-4{fill:#ccc;opacity:0.25;}.cls-5{fill:#ffd200;}.cls-6{font-size:22.39px;fill:#666;font-family:DINPro-Black, DINPro;}</style></defs><title>box-two</title><rect class="cls-1" x="38.7" y="169.11" width="276.26" height="260.28"/><path class="cls-2" d="M317.76,432.19H35.9V166.31H317.76ZM41.5,426.59H312.16V171.91H41.5Z"/><rect class="cls-3" x="176.83" y="191.08" width="115.74" height="156.93"/><path class="cls-2" d="M295.37,350.81H174V188.28H295.37Zm-115.74-5.6H289.77V193.88H179.63Z"/><rect class="cls-3" x="61.09" y="191.08" width="115.74" height="156.93"/><path class="cls-2" d="M179.63,350.81H58.29V188.28H179.63Zm-115.74-5.6H174V193.88H63.89Z"/><rect class="cls-4" x="118.96" y="191.08" width="57.87" height="156.93"/><rect class="cls-4" x="233.71" y="191.08" width="57.87" height="156.93"/><rect class="cls-3" x="61.09" y="348.01" width="231.47" height="58.56"/><path class="cls-2" d="M295.37,409.37H58.29V345.21H295.37Zm-231.47-5.6H289.77v-53H63.89Z"/><polygon class="cls-2" points="278.71 219.08 273.12 219.08 273.12 210.68 208.28 210.68 208.28 219.08 202.68 219.08 202.68 205.08 278.71 205.08 278.71 219.08"/><rect class="cls-4" x="118.96" y="348.01" width="173.61" height="58.56"/><polygon class="cls-2" points="278.57 376.01 272.97 376.01 272.97 367.61 80.69 367.61 80.69 376.01 75.09 376.01 75.09 362.01 278.57 362.01 278.57 376.01"/><rect class="cls-5" x="72.95" y="203.15" width="92.02" height="35.23"/><text class="cls-6" transform="translate(80.53 228.6)"><tspan xml:space="preserve">GK  412</tspan></text></svg>