<svg id="flat.2" xmlns="http://www.w3.org/2000/svg" viewBox="0 0 408 703.57"><defs><style>.cls-1{fill:#e6e6e6;}.cls-2{fill:#b3b3b3;}.cls-3{fill:#ccc;opacity:0.25;}.cls-4,.cls-7{fill:#3bd15e;}.cls-5{fill:#31ad48;}.cls-6{fill:#40dd5e;}.cls-7{opacity:0.5;}.cls-8{fill:#ffd200;}.cls-9{font-size:18.95px;fill:#666;font-family:DINPro-Black, DINPro;}</style></defs><title>box-one</title><rect class="cls-1" x="32.01" y="527.54" width="344.96" height="66.34"/><path class="cls-2" d="M379.34,596.25H29.64V525.17h349.7Zm-345-4.74H374.6v-61.6H34.38Z"/><polyline class="cls-3" points="376.97 593.88 376.97 527.54 204.02 527.54 204.02 593.88"/><polyline class="cls-4" points="376.5 490 376.5 128.46 31.54 128.46 31.54 490"/><polygon class="cls-5" points="378.87 490 374.13 490 374.13 130.83 33.91 130.83 33.91 490 29.17 490 29.17 126.09 378.87 126.09 378.87 490"/><rect class="cls-1" x="22.53" y="490.01" width="363.44" height="37.43"/><path class="cls-2" d="M388.34,529.81H20.17V487.64H388.34ZM24.9,525.07H383.6v-32.7H24.9Z"/><rect class="cls-6" x="50.49" y="147.42" width="144.52" height="323.16"/><path class="cls-5" d="M197.38,472.95H48.12V145H197.38ZM52.86,468.21H192.64V149.79H52.86Z"/><rect class="cls-6" x="213.97" y="147.42" width="143.57" height="323.16"/><path class="cls-5" d="M359.9,473H211.59l0-327.9H359.92Zm-143.57-4.75H355.16l0-318.42H216.35Z"/><rect class="cls-7" x="122.75" y="149.7" width="69.94" height="318.45"/><rect class="cls-7" x="284.85" y="149.7" width="69.94" height="318.45"/><polyline class="cls-3" points="383.69 524.95 383.69 492.27 204.02 492.27 204.02 524.95"/><polygon class="cls-5" points="178.9 185.09 174.16 185.09 174.16 168.85 72.29 168.85 72.29 185.09 67.55 185.09 67.55 164.12 178.9 164.12 178.9 185.09"/><polygon class="cls-5" points="341.43 185.09 336.69 185.09 336.69 168.85 234.82 168.85 234.82 185.09 230.08 185.09 230.08 164.12 341.43 164.12 341.43 185.09"/><rect class="cls-8" x="71.81" y="419.89" width="77.88" height="29.82"/><text class="cls-9" transform="translate(78.23 441.43)"><tspan xml:space="preserve">GK  421</tspan></text><rect class="cls-5" x="156.16" y="350.7" width="19.9" height="4.74"/><rect class="cls-5" x="156.16" y="303.31" width="19.9" height="4.74"/><rect class="cls-5" x="163.27" y="305.68" width="4.74" height="47.38"/><rect class="cls-5" x="232.92" y="350.7" width="19.9" height="4.74"/><rect class="cls-5" x="232.92" y="303.31" width="19.9" height="4.74"/><rect class="cls-5" x="240.03" y="305.68" width="4.74" height="47.38"/></svg>