<svg id="flat.2" xmlns="http://www.w3.org/2000/svg" viewBox="0 0 220 545.57"><defs><style>.cls-1{fill:#e6e6e6;}.cls-2{fill:#b3b3b3;}.cls-3{fill:#f2f2f2;}.cls-4{fill:#ccc;opacity:0.25;}.cls-5{fill:#ffd200;}.cls-6{font-size:17.4px;fill:#666;font-family:DINPro-Black, DINPro;}</style></defs><title>box-three</title><rect class="cls-1" x="48.19" y="123.36" width="132.38" height="398.04"/><path class="cls-2" d="M182.74,523.57H46V121.18H182.74ZM50.37,519.22h128V125.53h-128Z"/><rect class="cls-3" x="39.46" y="105.96" width="149.83" height="17.4"/><path class="cls-2" d="M191.47,125.53H37.29V103.78H191.47ZM41.64,121.18H187.12v-13H41.64Z"/><rect class="cls-3" x="65.56" y="140.76" width="97.64" height="134.88"/><path class="cls-2" d="M165.37,277.82h-102V138.58h102Zm-97.64-4.35H161V142.93H67.74Z"/><rect class="cls-3" x="65.56" y="292.4" width="97.64" height="211.74"/><path class="cls-2" d="M165.37,506.32h-102V290.23h102ZM67.74,502H161V294.58H67.74Z"/><rect class="cls-4" x="114.38" y="140.76" width="48.82" height="134.88"/><polygon class="cls-4" points="163.2 504.15 114.38 504.15 114.38 292.4 163.2 292.94 163.2 504.15"/><polygon class="cls-2" points="152.32 163.05 147.97 163.05 147.97 156.53 80.79 156.53 80.79 163.05 76.44 163.05 76.44 152.18 152.32 152.18 152.32 163.05"/><polygon class="cls-2" points="152.32 322.81 147.97 322.81 147.97 316.29 80.79 316.29 80.79 322.81 76.44 322.81 76.44 311.94 152.32 311.94 152.32 322.81"/><polygon class="cls-2" points="152.32 355.19 147.97 355.19 147.97 348.67 80.79 348.67 80.79 355.19 76.44 355.19 76.44 344.32 152.32 344.32 152.32 355.19"/><polygon class="cls-2" points="152.32 387.42 147.97 387.42 147.97 380.9 80.79 380.9 80.79 387.42 76.44 387.42 76.44 376.55 152.32 376.55 152.32 387.42"/><polygon class="cls-2" points="152.32 419.81 147.97 419.81 147.97 413.28 80.79 413.28 80.79 419.81 76.44 419.81 76.44 408.93 152.32 408.93 152.32 419.81"/><polygon class="cls-2" points="152.32 451.85 147.97 451.85 147.97 445.32 80.79 445.32 80.79 451.85 76.44 451.85 76.44 440.97 152.32 440.97 152.32 451.85"/><polygon class="cls-2" points="152.32 484.23 147.97 484.23 147.97 477.7 80.79 477.7 80.79 484.23 76.44 484.23 76.44 473.35 152.32 473.35 152.32 484.23"/><rect class="cls-5" x="78.63" y="235.42" width="71.49" height="27.37"/><text class="cls-6" transform="translate(84.52 255.2)"><tspan xml:space="preserve">GK  176</tspan></text></svg>