<?xml version="1.0" encoding="utf-8"?>
<!-- Generator: Adobe Illustrator 22.1.0, SVG Export Plug-In . SVG Version: 6.00 Build 0)  -->
<svg version="1.1" id="Layer_1" xmlns="http://www.w3.org/2000/svg" xmlns:xlink="http://www.w3.org/1999/xlink" x="0px" y="0px"
	 viewBox="0 0 129 129" style="enable-background:new 0 0 129 129;" xml:space="preserve">
<style type="text/css">
	.st0{fill:#FFD100;}
	.st1{fill:#2A2A2A;}
	.st2{fill:#FFFFFF;}
</style>
<title>logo-sv</title>
<g>
	<path class="st0" d="M2,74.1V55.5c0-1.6,1.3-2.9,2.9-2.9h120.7c1.6,0,2.9,1.3,2.9,2.9v15.7c0,1.6-1.3,2.9-2.9,2.9H8.1l-3.1,3.1
		L2,80.2V74.1z"/>
	<g>
		<path class="st1" d="M2,25.1v18.6c0,1.6,1.3,2.9,2.9,2.9H67c1.6,0,2.9-1.3,2.9-2.9V28c0-1.6-1.3-2.9-2.9-2.9H8.1L2,19V25.1z"/>
	</g>
	<g>
		<path class="st1" d="M128.5,101.6V83c0-1.6-1.3-2.9-2.9-2.9H57.4c-1.6,0-2.9,1.3-2.9,2.9v15.7c0,1.6,1.3,2.9,2.9,2.9h65l6.1,6.1
			V101.6z"/>
	</g>
	<g>
		<path class="st1" d="M11.2,66.5l1.4-1.7c0.9,0.7,1.9,1.1,3,1.1c0.7,0,1.1-0.2,1.1-0.6v0c0-0.4-0.3-0.6-1.6-0.9
			c-2-0.4-3.5-1-3.5-2.9v0c0-1.7,1.4-3,3.6-3c1.6,0,2.8,0.4,3.8,1.2l-1.3,1.8c-0.8-0.6-1.8-0.9-2.6-0.9c-0.6,0-0.9,0.3-0.9,0.6v0
			c0,0.4,0.3,0.6,1.6,0.9c2.1,0.5,3.4,1.1,3.4,2.9v0c0,1.9-1.5,3-3.7,3C13.9,68.1,12.4,67.6,11.2,66.5z"/>
		<path class="st1" d="M21.6,63.9v-5.2h2.6v5.1c0,1.3,0.7,2,1.7,2c1,0,1.7-0.6,1.7-1.9v-5.2h2.6v5.1c0,3-1.7,4.3-4.3,4.3
			C23.2,68.1,21.6,66.8,21.6,63.9z"/>
		<path class="st1" d="M32.2,66.5l1.4-1.7c0.9,0.7,1.9,1.1,3,1.1c0.7,0,1.1-0.2,1.1-0.6v0c0-0.4-0.3-0.6-1.6-0.9
			c-2-0.4-3.5-1-3.5-2.9v0c0-1.7,1.4-3,3.6-3c1.6,0,2.8,0.4,3.8,1.2l-1.3,1.8c-0.8-0.6-1.8-0.9-2.6-0.9c-0.6,0-0.9,0.3-0.9,0.6v0
			c0,0.4,0.3,0.6,1.6,0.9c2.1,0.5,3.4,1.1,3.4,2.9v0c0,1.9-1.5,3-3.7,3C34.9,68.1,33.3,67.6,32.2,66.5z"/>
		<path class="st1" d="M44.7,60.9h-2.8v-2.2H50v2.2h-2.8v7h-2.6V60.9z"/>
		<path class="st1" d="M54.3,58.6h2.5l3.9,9.3H58l-0.7-1.7h-3.6l-0.7,1.7h-2.7L54.3,58.6z M56.6,64.3l-1-2.6l-1,2.6H56.6z"/>
		<path class="st1" d="M62.9,58.7h2.6v9.2h-2.6V58.7z"/>
		<path class="st1" d="M68.3,58.7h2.4l3.8,4.9v-4.9H77v9.2h-2.2l-4-5.1v5.1h-2.5V58.7z"/>
		<path class="st1" d="M83,58.6h2.5l3.9,9.3h-2.7L86,66.3h-3.6l-0.7,1.7h-2.7L83,58.6z M85.3,64.3l-1-2.6l-1,2.6H85.3z"/>
		<path class="st1" d="M91.5,58.7h4.7c1.2,0,2,0.3,2.5,0.8c0.4,0.4,0.6,0.9,0.6,1.5v0c0,1.1-0.6,1.7-1.4,2.1c1.1,0.4,1.8,1,1.8,2.3
			v0c0,1.6-1.3,2.5-3.5,2.5h-4.8V58.7z M96.8,61.5c0-0.5-0.4-0.8-1.2-0.8H94v1.6h1.6C96.4,62.4,96.8,62.1,96.8,61.5L96.8,61.5z
			 M96,64.2h-2v1.7h2c0.8,0,1.2-0.3,1.2-0.8v0C97.2,64.5,96.8,64.2,96,64.2z"/>
		<path class="st1" d="M102.1,58.7h2.6v7h4.5v2.2h-7V58.7z"/>
		<path class="st1" d="M111.5,58.7h7.4v2.2H114v1.4h4.4v2H114v1.5h5v2.2h-7.5V58.7z"/>
	</g>
	<g>
		<path class="st2" d="M11,31.1h2.6v3.5h3.3v-3.5h2.6v9.2h-2.6v-3.5h-3.3v3.5H11V31.1z"/>
		<path class="st2" d="M22.2,31.1h7.4v2.2h-4.9v1.4h4.4v2h-4.4v1.5h5v2.2h-7.5V31.1z"/>
		<path class="st2" d="M32.2,31.1h2.6v7h4.5v2.2h-7V31.1z"/>
		<path class="st2" d="M41.5,31.1h2.6v7h4.5v2.2h-7V31.1z"/>
		<path class="st2" d="M50,35.8L50,35.8c0-2.7,2.1-4.8,5-4.8s5,2.1,5,4.8v0c0,2.7-2.1,4.8-5,4.8S50,38.4,50,35.8z M57.4,35.8
			L57.4,35.8c0-1.4-0.9-2.5-2.4-2.5c-1.4,0-2.3,1.1-2.3,2.5v0c0,1.3,1,2.5,2.4,2.5C56.4,38.2,57.4,37.1,57.4,35.8z"/>
	</g>
	<g>
		<path class="st2" d="M63.8,86.9h2.7l2.2,3.6l2.2-3.6h2.7v9.2h-2.5v-5.3l-2.4,3.6h-0.1l-2.3-3.6v5.3h-2.5V86.9z"/>
		<path class="st2" d="M79.6,86.9h2.5l3.9,9.3h-2.7l-0.7-1.7H79l-0.7,1.7h-2.7L79.6,86.9z M81.9,92.5l-1-2.6l-1,2.6H81.9z"/>
		<path class="st2" d="M88.1,86.9h2.6v7h4.5v2.2h-7V86.9z"/>
		<path class="st2" d="M97.4,86.9h2.7l2.2,3.6l2.2-3.6h2.7v9.2h-2.5v-5.3l-2.4,3.6h-0.1l-2.3-3.6v5.3h-2.5V86.9z"/>
		<path class="st2" d="M109.8,91.6L109.8,91.6c0-2.7,2.1-4.8,5-4.8c2.8,0,5,2.1,5,4.8v0c0,2.7-2.1,4.8-5,4.8
			C111.9,96.4,109.8,94.2,109.8,91.6z M112.2,84.4h2.2v1.8h-2.2V84.4z M117.1,91.6L117.1,91.6c0-1.4-0.9-2.5-2.4-2.5
			c-1.4,0-2.3,1.1-2.3,2.5v0c0,1.3,1,2.5,2.4,2.5C116.2,94.1,117.1,92.9,117.1,91.6z M115.1,84.4h2.2v1.8h-2.2V84.4z"/>
	</g>
</g>
</svg>
