<svg id="Layer_1" data-name="Layer 1" xmlns="http://www.w3.org/2000/svg" viewBox="0 0 129 129"><defs><style>.cls-1,.cls-6{fill:#404142;}.cls-2{fill:#ffd100;}.cls-3,.cls-9{font-size:13px;fill:#fff;}.cls-3,.cls-6,.cls-9{font-family:GothamHTF-Black, Gotham HTF;}.cls-3{letter-spacing:0.1em;}.cls-4{letter-spacing:0.04em;}.cls-5{letter-spacing:0.1em;}.cls-6{font-size:12px;letter-spacing:0.06em;}.cls-7{letter-spacing:0.04em;}.cls-8{letter-spacing:-0.03em;}.cls-9{letter-spacing:0.06em;}</style></defs><title>logo-en</title><rect class="cls-1" x="2" y="28" width="63" height="23" rx="4" ry="4"/><rect class="cls-2" x="2" y="55" width="107" height="23" rx="4" ry="4"/><text class="cls-3" transform="translate(8.66 44.01)">HEL<tspan class="cls-4" x="30.47" y="0">L</tspan><tspan class="cls-5" x="39" y="0">O</tspan></text><text class="cls-6" transform="translate(8.09 70.81)">SU<tspan class="cls-7" x="18.36" y="0">S</tspan><tspan class="cls-8" x="26.66" y="0">T</tspan><tspan x="34.22" y="0">AINABLE</tspan></text><polygon class="cls-1" points="16 29 2 20 2 34 16 34 16 29"/><path class="cls-1" d="M43.84,82.24l61-.47a4,4,0,0,1,4,4l.11,13,0,2,.1,12-12.51-7.9-52.55.4a4,4,0,0,1-4-4l-.12-15A4,4,0,0,1,43.84,82.24Z"/><polygon class="cls-2" points="95 56 109 47 109 61 95 61 95 56"/><text class="cls-9" transform="translate(47.08 98.01)">MALMÖ</text></svg>