<svg id="Layer_1" data-name="Layer 1" xmlns="http://www.w3.org/2000/svg" viewBox="0 0 129 129"><defs><style>.cls-1,.cls-4{fill:#404142;}.cls-2{fill:#ffd100;}.cls-3,.cls-7{font-size:13px;fill:#fff;}.cls-3,.cls-4,.cls-7{font-family:GothamHTF-Black, Gotham HTF;}.cls-3{letter-spacing:0.1em;}.cls-4{font-size:12px;letter-spacing:0.06em;}.cls-5{letter-spacing:0.05em;}.cls-6{letter-spacing:0.06em;}.cls-7{letter-spacing:0.06em;}</style></defs><title>logo-sv</title><rect class="cls-1" x="2" y="27" width="63" height="23" rx="4" ry="4"/><rect class="cls-2" x="2" y="54" width="85" height="23" rx="4" ry="4"/><text class="cls-3" transform="translate(7.67 43.01)">HALLÅ</text><text class="cls-4" transform="translate(7.12 69.81)">HÅLLBA<tspan class="cls-5" x="55.9" y="0">R</tspan><tspan class="cls-6" x="65.1" y="0">A</tspan></text><polygon class="cls-1" points="16 28 2 19 2 33 16 33 16 28"/><path class="cls-1" d="M26.84,81.24l58-.47a4,4,0,0,1,4,4l.11,13,0,2,.1,12-12.51-7.9-49.55.4a4,4,0,0,1-4-4l-.12-15A4,4,0,0,1,26.84,81.24Z"/><polygon class="cls-2" points="73 55 87 46 87 60 73 60 73 55"/><text class="cls-7" transform="translate(28.58 97.01)">MALMÖ</text></svg>