<?xml version="1.0" encoding="utf-8"?>
<!-- Generator: Adobe Illustrator 22.1.0, SVG Export Plug-In . SVG Version: 6.00 Build 0)  -->
<svg version="1.1" id="Layer_1" xmlns="http://www.w3.org/2000/svg" xmlns:xlink="http://www.w3.org/1999/xlink" x="0px" y="0px"
	 viewBox="0 0 129 129" style="enable-background:new 0 0 129 129;" xml:space="preserve">
<style type="text/css">
	.st0{fill:#FFD100;}
	.st1{fill:#2A2A2A;}
	.st2{fill:#FFFFFF;}
</style>
<title>logo-sv</title>
<g>
	<path class="st0" d="M2,76.6V57.2c0-1.7,1.3-3,3-3h102.4c1.7,0,3,1.3,3,3v16.4c0,1.7-1.3,3-3,3H8.4l-3.2,3.2L2,83V76.6z"/>
	<g>
		<path class="st1" d="M2,25.4v19.4c0,1.7,1.3,3,3,3h65c1.7,0,3-1.3,3-3V28.4c0-1.7-1.3-3-3-3H8.4L2,19V25.4z"/>
	</g>
	<g>
		<path class="st1" d="M110.5,105.4V86c0-1.7-1.3-3-3-3H36.1c-1.7,0-3,1.3-3,3v16.4c0,1.7,1.3,3,3,3h68l6.4,6.4V105.4z"/>
	</g>
	<g>
		<path class="st1" d="M13.1,60.5h2.7v3.6h3.4v-3.6h2.7v9.7h-2.7v-3.7h-3.4v3.7h-2.7V60.5z"/>
		<path class="st1" d="M27.9,61c-0.2-0.3-0.4-0.7-0.4-1.1c0-1,0.9-1.7,1.9-1.7c1.1,0,1.9,0.7,1.9,1.7c0,0.4-0.2,0.8-0.4,1.1l3.9,9.1
			H32l-0.7-1.7h-3.7l-0.7,1.7h-2.8L27.9,61z M30.5,66.3l-1.1-2.7l-1.1,2.7H30.5z M30.5,59.9c0-0.5-0.4-0.9-1-0.9c-0.6,0-1,0.4-1,0.9
			c0,0.5,0.4,0.9,1,0.9C30.1,60.8,30.5,60.4,30.5,59.9z"/>
		<path class="st1" d="M37,60.5h2.7v7.3h4.7v2.3H37V60.5z"/>
		<path class="st1" d="M46.8,60.5h2.7v7.3h4.7v2.3h-7.4V60.5z"/>
		<path class="st1" d="M56.5,60.5h5c1.2,0,2.1,0.3,2.6,0.9c0.4,0.4,0.6,0.9,0.6,1.6v0c0,1.1-0.6,1.8-1.5,2.2c1.2,0.4,1.9,1,1.9,2.4
			v0c0,1.7-1.4,2.7-3.7,2.7h-5V60.5z M62.1,63.5c0-0.5-0.4-0.8-1.2-0.8h-1.8v1.7h1.7C61.7,64.3,62.1,64.1,62.1,63.5L62.1,63.5z
			 M61.2,66.2h-2V68h2.1c0.8,0,1.3-0.3,1.3-0.9v0C62.5,66.6,62.1,66.2,61.2,66.2z"/>
		<path class="st1" d="M71,60.4h2.6l4.1,9.7h-2.9l-0.7-1.7h-3.7l-0.7,1.7h-2.8L71,60.4z M73.3,66.3l-1.1-2.7l-1.1,2.7H73.3z"/>
		<path class="st1" d="M79.9,60.5h4.6c1.5,0,2.5,0.4,3.1,1c0.6,0.6,0.9,1.3,0.9,2.2v0c0,1.5-0.8,2.5-2,3l2.3,3.4h-3.1l-1.9-2.9h-1.2
			v2.9h-2.7V60.5z M84.3,65.1c0.9,0,1.4-0.4,1.4-1.1v0c0-0.8-0.6-1.2-1.4-1.2h-1.8v2.3H84.3z"/>
		<path class="st1" d="M94.2,60.4h2.6l4.1,9.7H98l-0.7-1.7h-3.7l-0.7,1.7h-2.8L94.2,60.4z M96.5,66.3l-1.1-2.7l-1.1,2.7H96.5z"/>
	</g>
	<g>
		<path class="st2" d="M11.4,31.7h2.7v3.6h3.4v-3.6h2.7v9.7h-2.7v-3.7h-3.4v3.7h-2.7V31.7z"/>
		<path class="st2" d="M26.5,31.6h2.6l4.1,9.7h-2.9l-0.7-1.7h-3.7l-0.7,1.7h-2.8L26.5,31.6z M28.8,37.5l-1.1-2.7l-1.1,2.7H28.8z"/>
		<path class="st2" d="M35.3,31.7H38V39h4.7v2.3h-7.4V31.7z"/>
		<path class="st2" d="M45.1,31.7h2.7V39h4.7v2.3h-7.4V31.7z"/>
		<path class="st2" d="M57.9,32.2c-0.2-0.3-0.4-0.7-0.4-1.1c0-1,0.9-1.7,1.9-1.7c1.1,0,1.9,0.7,1.9,1.7c0,0.4-0.2,0.8-0.4,1.1
			l3.9,9.1H62l-0.7-1.7h-3.7l-0.7,1.7h-2.8L57.9,32.2z M60.5,37.5l-1.1-2.7l-1.1,2.7H60.5z M60.5,31.1c0-0.5-0.4-0.9-1-0.9
			c-0.6,0-1,0.4-1,0.9c0,0.5,0.4,0.9,1,0.9C60.1,32,60.5,31.6,60.5,31.1z"/>
	</g>
	<g>
		<path class="st2" d="M42.8,90h2.8l2.3,3.7l2.3-3.7h2.8v9.7h-2.7v-5.5l-2.5,3.8h-0.1l-2.5-3.8v5.5h-2.6V90z"/>
		<path class="st2" d="M59.3,90h2.6l4.1,9.7h-2.9L62.5,98h-3.7L58,99.7h-2.8L59.3,90z M61.7,95.9l-1.1-2.7l-1.1,2.7H61.7z"/>
		<path class="st2" d="M68.2,90h2.7v7.3h4.7v2.3h-7.4V90z"/>
		<path class="st2" d="M78,90h2.8l2.3,3.7l2.3-3.7h2.8v9.7h-2.7v-5.5l-2.5,3.8H83l-2.5-3.8v5.5H78V90z"/>
		<path class="st2" d="M90.9,94.9L90.9,94.9c0-2.8,2.2-5,5.2-5s5.2,2.2,5.2,5v0c0,2.8-2.2,5-5.2,5S90.9,97.7,90.9,94.9z M93.4,87.3
			h2.3v1.9h-2.3V87.3z M98.5,94.9L98.5,94.9c0-1.4-1-2.6-2.5-2.6c-1.5,0-2.5,1.2-2.5,2.6v0c0,1.4,1,2.6,2.5,2.6
			C97.5,97.5,98.5,96.3,98.5,94.9z M96.4,87.3h2.3v1.9h-2.3V87.3z"/>
	</g>
</g>
</svg>
