<svg xmlns="http://www.w3.org/2000/svg" viewBox="0 0 1146.41 703.57"><defs><style>.cls-1{fill:#a0deea;}.cls-2{fill:#00aed9;opacity:0.25;}.cls-3{fill:none;stroke:#007dbc;stroke-linecap:round;}.cls-10,.cls-3,.cls-4,.cls-6,.cls-7{stroke-miterlimit:10;stroke-width:5px;}.cls-4{fill:#f2f2f2;}.cls-4,.cls-7{stroke:#ccc;}.cls-5,.cls-6{fill:#e8d7c5;}.cls-10,.cls-6{stroke:#c69c6d;}.cls-7{fill:#fff;}.cls-8{font-size:20px;fill:#00b4e4;font-family:GothamHTF-Bold, Gotham HTF;font-weight:700;}.cls-10,.cls-9{fill:#ddc4a7;}</style></defs><title>Pier</title><g id="water"><path class="cls-1" d="M1147.11,446.67a149.82,149.82,0,0,1-149.82,150H0v-150"/><path class="cls-2" d="M-1.75,446.67H762.92a7.43,7.43,0,0,1,7.52,7,7.22,7.22,0,0,1-7.22,7.45H381.66a10.09,10.09,0,0,0-10.09,10.09h0a10.09,10.09,0,0,0,10.09,10.09H754.9a15.54,15.54,0,0,1,15.54,15.54h0a15.54,15.54,0,0,1-15.54,15.54H437.14a9.9,9.9,0,0,0-9.9,9.9h0a9.9,9.9,0,0,0,9.9,9.9H585.32a14.67,14.67,0,0,1,14.79,13.7A14.4,14.4,0,0,1,585.73,561H477.57a10.36,10.36,0,0,0-10.47,9.95,10.14,10.14,0,0,0,10.14,10.33h208a15.4,15.4,0,0,1,15.4,15.4H0"/><line class="cls-3" x1="1147.11" y1="446.67" x2="-1.75" y2="446.67"/></g><g id="pier"><rect class="cls-4" x="21.09" y="130.77" width="10" height="225.39"/><rect class="cls-4" x="181.25" y="130.77" width="10" height="222.89"/><rect class="cls-4" x="6.09" y="125.77" width="200.16" height="10"/><rect class="cls-4" x="61.25" y="271.85" width="10" height="81.8"/><rect class="cls-4" x="101.25" y="271.85" width="10" height="81.8"/><rect class="cls-4" x="141.25" y="271.85" width="10" height="81.8"/><rect class="cls-4" x="221.25" y="271.85" width="10" height="81.8"/><rect class="cls-4" x="261.25" y="271.85" width="10" height="81.8"/><rect class="cls-4" x="301.25" y="271.85" width="10" height="81.8"/><rect class="cls-4" x="341.25" y="271.85" width="10" height="81.8"/><rect class="cls-4" x="381.25" y="271.85" width="10" height="81.8"/><rect class="cls-4" x="421.25" y="271.85" width="10" height="81.8"/><rect class="cls-4" x="461.25" y="271.85" width="10" height="81.8"/><rect class="cls-4" x="501.25" y="271.85" width="10" height="81.8"/><rect class="cls-4" x="541.25" y="271.85" width="10" height="81.8"/><rect class="cls-4" x="581.25" y="271.85" width="10" height="81.8"/><rect class="cls-4" x="621.25" y="271.85" width="10" height="81.8"/><rect class="cls-4" x="661.25" y="271.85" width="10" height="81.8"/><rect class="cls-4" x="701.25" y="271.85" width="10" height="81.8"/><rect class="cls-4" x="741.25" y="271.85" width="10" height="81.8"/><rect class="cls-4" x="781.25" y="271.85" width="10" height="81.8"/><rect class="cls-4" x="821.25" y="271.85" width="10" height="81.8"/><rect class="cls-4" x="861.25" y="271.85" width="10" height="81.8"/><rect class="cls-4" x="901.25" y="271.85" width="10" height="81.8"/><rect class="cls-4" x="941.25" y="271.85" width="10" height="81.8"/><rect class="cls-4" x="981.25" y="271.85" width="10" height="81.8"/><rect class="cls-4" x="1021.25" y="271.85" width="10" height="81.8"/><rect class="cls-4" x="1061.25" y="271.85" width="10" height="81.8"/><rect class="cls-4" x="1101.25" y="271.85" width="10" height="81.8"/><polygon class="cls-5" points="1062.92 394.89 876.23 394.89 866.23 374.59 1072.92 374.59 1062.92 394.89"/><rect class="cls-6" x="906.67" y="394.89" width="125.81" height="101.78"/><rect class="cls-7" x="61.67" y="114.69" width="97.16" height="32.16"/><text class="cls-8" transform="translate(76.16 137.85)">PIER 6</text><polygon class="cls-5" points="705.56 394.89 518.86 394.89 508.86 374.59 715.56 374.59 705.56 394.89"/><rect class="cls-6" x="549.31" y="394.89" width="125.81" height="101.78"/><polygon class="cls-6" points="347.73 394.89 161.04 394.89 151.04 374.59 357.73 374.59 347.73 394.89"/><polygon class="cls-6" points="1062.92 394.89 876.23 394.89 866.23 374.59 1072.92 374.59 1062.92 394.89"/><polygon class="cls-6" points="705.56 394.89 518.86 394.89 508.86 374.59 715.56 374.59 705.56 394.89"/><rect class="cls-6" x="191.48" y="394.89" width="125.81" height="101.78"/><rect class="cls-9" x="194.04" y="397.52" width="60.35" height="96.8"/><rect class="cls-9" x="551.86" y="397.52" width="60.35" height="96.73"/><rect class="cls-9" x="909.23" y="397.52" width="60.35" height="96.73"/><polyline class="cls-10" points="0 353.65 1141.14 353.65 1141.14 374.74 0 374.74"/><rect class="cls-6" x="26.09" y="348.38" width="40.16" height="10.54"/><polyline class="cls-6" points="0 348.38 26.09 348.38 26.09 358.93 0 358.93"/><rect class="cls-6" x="66.25" y="348.38" width="40.16" height="10.54"/><rect class="cls-6" x="106.09" y="348.38" width="40.16" height="10.54"/><rect class="cls-6" x="146.25" y="348.38" width="40.16" height="10.54"/><rect class="cls-6" x="186.09" y="348.38" width="40.16" height="10.54"/><rect class="cls-6" x="226.25" y="348.38" width="40.16" height="10.54"/><rect class="cls-6" x="266.09" y="348.38" width="40.16" height="10.54"/><rect class="cls-6" x="306.25" y="348.38" width="40.16" height="10.54"/><rect class="cls-6" x="346.09" y="348.38" width="40.16" height="10.54"/><rect class="cls-6" x="386.25" y="348.38" width="40.16" height="10.54"/><rect class="cls-6" x="426.09" y="348.38" width="40.16" height="10.54"/><rect class="cls-6" x="466.25" y="348.38" width="40.16" height="10.54"/><rect class="cls-6" x="506.09" y="348.38" width="40.16" height="10.54"/><rect class="cls-6" x="546.25" y="348.38" width="40.16" height="10.54"/><rect class="cls-6" x="586.09" y="348.38" width="40.16" height="10.54"/><rect class="cls-6" x="626.25" y="348.38" width="40.16" height="10.54"/><rect class="cls-6" x="666.09" y="348.38" width="40.16" height="10.54"/><rect class="cls-6" x="706.25" y="348.38" width="40.16" height="10.54"/><rect class="cls-6" x="746.09" y="348.38" width="40.16" height="10.54"/><rect class="cls-6" x="786.25" y="348.38" width="40.16" height="10.54"/><rect class="cls-6" x="826.09" y="348.38" width="40.16" height="10.54"/><rect class="cls-6" x="866.25" y="348.38" width="40.16" height="10.54"/><rect class="cls-6" x="906.09" y="348.38" width="40.16" height="10.54"/><rect class="cls-6" x="946.25" y="348.38" width="40.16" height="10.54"/><rect class="cls-6" x="986.09" y="348.38" width="40.16" height="10.54"/><rect class="cls-6" x="1026.25" y="348.38" width="40.16" height="10.54"/><rect class="cls-6" x="1066.09" y="348.38" width="40.16" height="10.54"/><rect class="cls-6" x="1106.25" y="348.38" width="40.16" height="10.54"/><polyline class="cls-7" points="-1.75 309 1147.11 309 1147.11 319 -1.75 319"/><polyline class="cls-7" points="0 250.77 1147.11 250.77 1147.11 271.85 0 271.85"/></g></svg>