<?xml version="1.0" encoding="utf-8"?>
<!-- Generator: Adobe Illustrator 22.1.0, SVG Export Plug-In . SVG Version: 6.00 Build 0)  -->
<svg version="1.1" xmlns="http://www.w3.org/2000/svg" xmlns:xlink="http://www.w3.org/1999/xlink" x="0px" y="0px"
	 viewBox="0 0 400 400" style="enable-background:new 0 0 400 400;" xml:space="preserve">
<style type="text/css">
	.st0{display:none;}
	.st1{display:inline;stroke:#FFFFFF;stroke-miterlimit:10;}
	.st2{fill:#FFFFFF;}
	.st3{opacity:0.75;fill:#FFFFFF;}
</style>
<g id="Layer_2" class="st0">
	<rect class="st1" width="400" height="400"/>
</g>
<g id="Layer_1">
	<title>process-3</title>
	<desc>Created with Sketch.</desc>
	<g id="Page-1_1_">
		<g id="process-3">
			<g id="Page-1" transform="translate(155.000000, 66.000000)">
				<g id="Group-31" transform="translate(0.000000, 0.008550)">
					<path id="Fill-22" class="st2" d="M167.1,165.3l-11.4-63.6c-0.8-4.4-4.7-7.5-9-7.5v0H87.9v0c-1.9,0-3.8,0.5-5.4,1.6l-9.7,6.8
						l-8.5,5.9l-2.9,2l-6-16.1c-1.8-4.7-7-7.1-11.8-5.4c-0.5,0.2-1,0.4-1.5,0.7c-3.7,2.2-5.5,6.9-3.9,11.1l7.7,20.5l4.8,12.9l0,0
						c0.9,2.5,3.7,3.5,6.5,1.5l0,0l0,0l7-4.9l0,0L82,118.5h5.1c0,0-13.5,84.8-12,84.8h12.3v51.3c0,5.6,4.5,10.1,10.1,10.1
						c5.6,0,10.1-4.5,10.1-10.1v-51.3h6.4v51.3c0,5.6,4.5,10.1,10.1,10.1c5.6,0,10.1-4.5,10.1-10.1v-51.3h12.3
						c1.5,0,2.5-1.2,2.3-2.7l-14.3-82.1h5.7l9,50.1c0.8,4.4,4.6,7.5,9,7.5c0.5,0,1.1,0,1.6-0.1C164.7,175.1,168,170.3,167.1,165.3"
						/>
					<path id="Fill-23" class="st2" d="M52.4,63.1l-9.1,1.4c-1.9,0.3-3.2,2.1-2.9,3.9l2.4,15.9c1.3-0.4,2.7-0.7,4-0.7
						c4.6,0,8.8,2.5,11,6.4c1.1-0.7,1.8-2,1.6-3.5L56.3,66C56.1,64.1,54.3,62.8,52.4,63.1"/>
					<path id="Fill-24" class="st2" d="M118.6,33.5c-15.6,0-28.3,12.7-28.3,28.4c0,15.7,12.7,28.4,28.3,28.4
						c15.6,0,28.3-12.7,28.3-28.4C147,46.2,134.3,33.5,118.6,33.5 M104.7,53.7c-2.6,0-4.6-2.1-4.6-4.6c0-2.6,2.1-4.6,4.6-4.6
						c2.6,0,4.6,2.1,4.6,4.6C109.3,51.6,107.2,53.7,104.7,53.7 M124.9,58.3c-2.6,0-4.6-2.1-4.6-4.6c0-2.6,2.1-4.6,4.6-4.6
						c2.6,0,4.6,2.1,4.6,4.6C129.5,56.2,127.5,58.3,124.9,58.3"/>
					<path id="Fill-25" class="st2" d="M84.6,0.9H7.2c-3.7,0-6.8,2.9-6.8,6.4v27.2c0,3.5,3,6.4,6.8,6.4h31.2l9,15.5L56.2,41h28.4
						c3.7,0,6.8-2.9,6.8-6.4V7.4C91.4,3.8,88.3,0.9,84.6,0.9"/>
					<path id="Fill-26" class="st2" d="M133.7,93.9h-6.5c0,0-2.4,10.2-14.6,10.2S96.2,93.9,96.2,93.9h-7.9v0l-0.7,24.9l-14.4,84.4
						c-0.3,1.5,0.8,2.8,2.3,2.8h12.4H108h6.4h20.3h12.4c1.5,0,2.5-1.3,2.3-2.8L135,118.8L133.7,93.9z"/>
					<path id="Fill-27" class="st2" d="M98.7,37.4c0,0-0.3,1.3,1,1.3c7.2,0,31.5,0.8,37.5,10.7c8.1,13.5,1.9,27.2-1.9,29.9l0.6,7.3
						c0,0,13.9-7.1,15.1-24.7c1.1-17.6-9.5-28.9-22.3-31.6C106.3,25.8,98.7,37.4,98.7,37.4"/>
					<path id="Fill-28" class="st2" d="M90.4,206H108h6.4h20.3h12.4c1.5,0,2.5-1.3,2.3-2.8L135,118.8L90.4,206z"/>
					<path id="Fill-29" class="st2" d="M124.6,264.6L124.6,264.6c5.6,0,10.2-4.6,10.2-10.2v-38.6l-20.4,38.6
						C114.4,260,119,264.6,124.6,264.6"/>
					<path id="Fill-30" class="st2" d="M97.9,264.6L97.9,264.6c5.6,0,10.2-4.6,10.2-10.2v-38.6l-20.4,38.6
						C87.7,260,92.2,264.6,97.9,264.6"/>
				</g>
			</g>
			<g>
				<path class="st3" d="M145.7,264.4c1.4-0.5,2.6-1.4,3.5-2.5c1.7-2,2.5-4.5,2.2-7.1l-0.1-0.4c-0.6-4.8,1.5-9.6,5.4-12.5l16.6-12.2
					c2.4-1.7,3.7-4.5,3.7-7.4l0-4.7c0-5.1-4.2-9.1-9.2-9.1l-9.1,0.1c-7.5,0-13.6-6-13.6-13.5l-0.1-13.3h4.4l0.1,13.3
					c0,5,4.2,9.1,9.2,9.1l9.1-0.1c7.5,0,13.6,6,13.6,13.5l0,4.7c0,4.3-2,8.4-5.5,11l-16.6,12.2c-2.7,2-4.1,5.2-3.7,8.5l0.1,0.4
					c0.5,3.8-0.7,7.7-3.3,10.6c-1.8,2.1-4.2,3.6-6.8,4.2L145.7,264.4z"/>
				<rect x="118.2" y="157.7" class="st3" width="9.8" height="13.4"/>
				<path class="st2" d="M148.4,290.5h-2.7v-4.4h2.7c6.9,0,12.4-5.6,12.4-12.4v-24.7c0-6.9-5.6-12.4-12.4-12.4h-2.7v-4.4h2.7
					c9.3,0,16.8,7.5,16.8,16.8v24.7C165.2,282.9,157.7,290.4,148.4,290.5z"/>
				<rect x="141.2" y="176.5" class="st2" width="11.1" height="2.6"/>
				<path class="st2" d="M142.6,155H103v-6.9c0-2,1.6-3.6,3.6-3.6H139c2,0,3.6,1.6,3.6,3.6L142.6,155z"/>
				<path class="st2" d="M148.5,330.1h-51v-18.5h51V330.1z"/>
				<polygon class="st2" points="143,193.3 143,302.5 103.1,302.5 103.1,193.3 				"/>
				<polygon class="st3" points="108.1,190.6 108.1,186.9 137.9,186.9 137.9,190.6 				"/>
				<polygon class="st3" points="108.1,308.9 108.1,305.3 137.9,305.3 137.9,308.9 				"/>
				<rect x="103" y="173.7" class="st2" width="40" height="10.5"/>
			</g>
		</g>
	</g>
</g>
</svg>
