<?xml version="1.0" encoding="utf-8"?>
<!-- Generator: Adobe Illustrator 22.1.0, SVG Export Plug-In . SVG Version: 6.00 Build 0)  -->
<svg version="1.1" xmlns="http://www.w3.org/2000/svg" xmlns:xlink="http://www.w3.org/1999/xlink" x="0px" y="0px"
	 viewBox="0 0 400 400" style="enable-background:new 0 0 400 400;" xml:space="preserve">
<style type="text/css">
	.st0{display:none;}
	.st1{display:inline;stroke:#FFFFFF;stroke-miterlimit:10;}
	.st2{display:inline;fill:#FFFFFF;}
	.st3{filter:url(#Adobe_OpacityMaskFilter);}
	.st4{fill:#FFFFFF;}
	.st5{mask:url(#mask-2_1_);fill:#FFFFFF;}
	.st6{filter:url(#Adobe_OpacityMaskFilter_1_);}
	.st7{mask:url(#mask-2_2_);fill:#FFFFFF;}
	.st8{filter:url(#Adobe_OpacityMaskFilter_2_);}
	.st9{mask:url(#mask-2_3_);fill:#FFFFFF;}
	.st10{filter:url(#Adobe_OpacityMaskFilter_3_);}
	.st11{mask:url(#mask-2_4_);fill:#FFFFFF;}
	.st12{filter:url(#Adobe_OpacityMaskFilter_4_);}
	.st13{mask:url(#mask-2_5_);fill:#FFFFFF;}
	.st14{filter:url(#Adobe_OpacityMaskFilter_5_);}
	.st15{mask:url(#mask-2_6_);fill:#FFFFFF;}
	.st16{filter:url(#Adobe_OpacityMaskFilter_6_);}
	.st17{mask:url(#mask-2_7_);fill:#FFFFFF;}
	.st18{opacity:0.75;fill:#FFFFFF;}
</style>
<g id="Layer_2" class="st0">
	<rect class="st1" width="400" height="400"/>
</g>
<g id="Layer_4" class="st0">
	<path id="Shape" class="st2" d="M149.4,265.2c1.7,0,3,1.3,3,3V316c0,1.7-1.3,3-3,3H92.6c-1.7,0-3-1.3-3-3v-47.8c0-1.7,1.3-3,3-3
		H149.4z M89.6,135.3c-1.1,0-2,0.9-2,2c0,1.1,0.9,2,2,2h62.7c1.1,0,2-0.9,2-2c0-1.1-0.9-2-2-2H89.6z M80,126.1l0.3,2.4
		c0.2,1.6,1.7,3,3.4,3h74.7c1.7,0,3.2-1.3,3.4-3l0.3-2.4c-12.3-5.6-26.2-8.7-41-8.7C106.4,117.4,92.5,120.5,80,126.1z M149.9,258.7
		c0,1.7-1.3,3-3,3H95.1c-1.7,0-3-1.3-3-3V145.9c0-1.7,1.3-3,3-3h51.8c1.7,0,3,1.3,3,3V258.7z M122,154.3c1.7,0,3-1.3,3-3v-2.1
		c0-1.7-1.3-3-3-3H120c-1.7,0-3,1.3-3,3v2.1c0,1.7,1.3,3,3,3H122z M114.1,174.9c-1.7,0-3,1.3-3,3v21.8c0,1.7,1.3,3,3,3h13.5
		c1.7,0,3-1.3,3-3v-21.8c0-1.7-1.3-3-3-3H114.1z M136.2,157.9c-0.1,0-1.6,0-3.2,0h-24c-1.7,0-3,1.3-3,3v4.1c0,1.7,1.3,3,3,3h24.3
		c1.7,0,3-1.3,3-3v-4.1c0-1.7-0.2-3-0.2-3H136.2z M131.9,163.9c1.2,1.2,2.1,0.8,2.1-0.9v0c0-1.7-1.3-3-3-3h-20c-1.7,0-3,1.3-3,3v0
		c0,1.7,0.9,2.1,2.1,0.9L109,165c1.2-1.2,3.5-2.1,5.1-2.1h13.7c1.7,0,3.9,0.9,5.1,2.1L131.9,163.9z"/>
</g>
<g id="Layer_1">
	<title>process-1</title>
	<desc>Created with Sketch.</desc>
	<g id="Page-1_1_">
		<g id="process-1">
			<g id="Group" transform="translate(67.000000, 73.000000)">
				<g id="Page-1">
					<g id="Group-30" transform="translate(0.000000, 0.778000)">
						<g id="Clip-9">
						</g>
						<defs>
							<filter id="Adobe_OpacityMaskFilter" filterUnits="userSpaceOnUse" x="102.7" y="69.7" width="151.5" height="184.3">
								<feColorMatrix  type="matrix" values="1 0 0 0 0  0 1 0 0 0  0 0 1 0 0  0 0 0 1 0"/>
							</filter>
						</defs>
						<mask maskUnits="userSpaceOnUse" x="102.7" y="69.7" width="151.5" height="184.3" id="mask-2_1_">
							<g class="st3">
								<polygon id="path-1_1_" class="st4" points="0,254 257.3,254 257.3,0.2 0,0.2 0,168 								"/>
							</g>
						</mask>
						<path id="Fill-22" class="st5" d="M242,77.8c-0.8-4.8-4.9-8.2-9.6-8.1l-62.3,0c-2,0-4,0.5-5.7,1.8l-45.6,32.4L104,114.4
							c-1.4,1-1.7,2.9-0.8,4.3c0.6,0.9,1.5,1.3,2.5,1.3c0.6,0,1.2-0.2,1.7-0.6l7.4-5.3c0.3,1.2,0.8,2.4,1.5,3.4
							c1.9,2.8,4.9,4.2,8,4.2c1.9,0,3.8-0.6,5.5-1.8l34.1-24.2h5.4l-15.2,88.8c-0.3,1.6,0.8,2.9,2.4,2.9h13v55.5
							c0,6,4.8,10.9,10.7,10.9c5.9,0,10.7-4.9,10.7-10.9v-55.5h6.8v55.5c0,6,4.8,10.9,10.7,10.9c5.9,0,10.7-4.9,10.7-10.9v-55.5h13
							c1.6,0,2.7-1.3,2.4-2.9l-15.2-88.8h6l9.5,54.2c0.8,4.8,4.9,8.2,9.5,8.2c0.6,0,1.1-0.1,1.7-0.2c5.3-1,8.8-6.1,7.8-11.5
							L242,77.8z"/>
						<defs>
							<filter id="Adobe_OpacityMaskFilter_1_" filterUnits="userSpaceOnUse" x="165.3" y="2.7" width="60" height="61.4">
								<feColorMatrix  type="matrix" values="1 0 0 0 0  0 1 0 0 0  0 0 1 0 0  0 0 0 1 0"/>
							</filter>
						</defs>
						<mask maskUnits="userSpaceOnUse" x="165.3" y="2.7" width="60" height="61.4" id="mask-2_2_">
							<g class="st6">
								<polygon id="path-1_2_" class="st4" points="0,254 257.3,254 257.3,0.2 0,0.2 0,168 								"/>
							</g>
						</mask>
						<path id="Fill-23" class="st7" d="M195.3,2.7c-16.6,0-30,13.7-30,30.7s13.4,30.7,30,30.7c16.6,0,30-13.7,30-30.7
							S211.9,2.7,195.3,2.7 M176.8,44.9c-2.7,0-4.9-2.2-4.9-5c0-2.8,2.2-5,4.9-5c2.7,0,4.9,2.2,4.9,5
							C181.7,42.6,179.5,44.9,176.8,44.9 M199.2,47.8c-2.7,0-4.9-2.2-4.9-5c0-2.8,2.2-5,4.9-5c2.7,0,4.9,2.2,4.9,5
							C204.1,45.5,201.9,47.8,199.2,47.8"/>
						<defs>
							<filter id="Adobe_OpacityMaskFilter_2_" filterUnits="userSpaceOnUse" x="163.9" y="0.2" width="65.8" height="63.9">
								<feColorMatrix  type="matrix" values="1 0 0 0 0  0 1 0 0 0  0 0 1 0 0  0 0 0 1 0"/>
							</filter>
						</defs>
						<mask maskUnits="userSpaceOnUse" x="163.9" y="0.2" width="65.8" height="63.9" id="mask-2_3_">
							<g class="st8">
								<polygon id="path-1_3_" class="st4" points="0,254 257.3,254 257.3,0.2 0,0.2 0,168 								"/>
							</g>
						</mask>
						<path id="Fill-24" class="st9" d="M208,28.9c16.2-3,4.2,35.2,4.2,35.2l5.7-1c4.7-5,10.5-17.2,11.7-28.5
							c1-10-5.2-23.2-13.5-29.2c-9.8-7-42.2-11.8-52.2,19.2C163.9,24.6,187.1,32.8,208,28.9z"/>
						<defs>
							<filter id="Adobe_OpacityMaskFilter_3_" filterUnits="userSpaceOnUse" x="154.1" y="69.7" width="80.5" height="117.9">
								<feColorMatrix  type="matrix" values="1 0 0 0 0  0 1 0 0 0  0 0 1 0 0  0 0 0 1 0"/>
							</filter>
						</defs>
						<mask maskUnits="userSpaceOnUse" x="154.1" y="69.7" width="80.5" height="117.9" id="mask-2_4_">
							<g class="st10">
								<polygon id="path-1_4_" class="st4" points="0,254 257.3,254 257.3,0.2 0,0.2 0,168 								"/>
							</g>
						</mask>
						<path id="Fill-26" class="st11" d="M218,69.7h-6.8c0,0-2.6,10.7-15.4,10.7s-17.3-10.7-17.3-10.7h-8.4l-0.8,26.2l-15.2,88.8
							c-0.3,1.6,0.8,2.9,2.4,2.9h13h21.4h6.8h21.4h13c1.6,0,2.7-1.3,2.4-2.9l-15.2-88.8L218,69.7z"/>
						<defs>
							<filter id="Adobe_OpacityMaskFilter_4_" filterUnits="userSpaceOnUse" x="172.4" y="95.9" width="62.2" height="91.7">
								<feColorMatrix  type="matrix" values="1 0 0 0 0  0 1 0 0 0  0 0 1 0 0  0 0 0 1 0"/>
							</filter>
						</defs>
						<mask maskUnits="userSpaceOnUse" x="172.4" y="95.9" width="62.2" height="91.7" id="mask-2_5_">
							<g class="st12">
								<polygon id="path-1_5_" class="st4" points="0,254 257.3,254 257.3,0.2 0,0.2 0,168 								"/>
							</g>
						</mask>
						<path id="Fill-27" class="st13" d="M172.4,187.6h18.5h6.8h21.4h13c1.6,0,2.7-1.3,2.4-2.9l-15.2-88.8L172.4,187.6z"/>
						<defs>
							<filter id="Adobe_OpacityMaskFilter_5_" filterUnits="userSpaceOnUse" x="197.6" y="202.6" width="21.5" height="51.4">
								<feColorMatrix  type="matrix" values="1 0 0 0 0  0 1 0 0 0  0 0 1 0 0  0 0 0 1 0"/>
							</filter>
						</defs>
						<mask maskUnits="userSpaceOnUse" x="197.6" y="202.6" width="21.5" height="51.4" id="mask-2_6_">
							<g class="st14">
								<polygon id="path-1_6_" class="st4" points="0,254 257.3,254 257.3,0.2 0,0.2 0,168 								"/>
							</g>
						</mask>
						<path id="Fill-28" class="st15" d="M208.4,254L208.4,254c5.9,0,10.8-4.8,10.8-10.8v-40.7l-21.5,40.7
							C197.6,249.2,202.5,254,208.4,254"/>
						<defs>
							<filter id="Adobe_OpacityMaskFilter_6_" filterUnits="userSpaceOnUse" x="169.5" y="202.6" width="21.5" height="51.4">
								<feColorMatrix  type="matrix" values="1 0 0 0 0  0 1 0 0 0  0 0 1 0 0  0 0 0 1 0"/>
							</filter>
						</defs>
						<mask maskUnits="userSpaceOnUse" x="169.5" y="202.6" width="21.5" height="51.4" id="mask-2_7_">
							<g class="st16">
								<polygon id="path-1_7_" class="st4" points="0,254 257.3,254 257.3,0.2 0,0.2 0,168 								"/>
							</g>
						</mask>
						<path id="Fill-29" class="st17" d="M191,243.2v-40.7l-21.5,40.7c0,5.9,4.8,10.8,10.8,10.8S191,249.2,191,243.2z"/>
					</g>
				</g>
			</g>
		</g>
	</g>
</g>
<g id="Layer_3">
	<g>
		<path class="st18" d="M125.7,253.4c1.4-0.5,2.6-1.4,3.5-2.5c1.7-2,2.5-4.5,2.2-7.1l-0.1-0.4c-0.6-4.8,1.5-9.6,5.4-12.5l16.6-12.2
			c2.4-1.7,3.7-4.5,3.7-7.4l0-4.7c0-5.1-4.2-9.1-9.2-9.1l-9.1,0.1c-7.5,0-13.6-6-13.6-13.5l-0.1-13.3h4.4l0.1,13.3
			c0,5,4.2,9.1,9.2,9.1l9.1-0.1c7.5,0,13.6,6,13.6,13.5l0,4.7c0,4.3-2,8.4-5.5,11l-16.6,12.2c-2.7,2-4.1,5.2-3.7,8.5l0.1,0.4
			c0.5,3.8-0.7,7.7-3.3,10.6c-1.8,2.1-4.2,3.6-6.8,4.2L125.7,253.4z"/>
		<rect x="98.2" y="146.7" class="st18" width="9.8" height="13.4"/>
		<path class="st4" d="M128.4,279.5h-2.7v-4.4h2.7c6.9,0,12.4-5.6,12.4-12.4v-24.7c0-6.9-5.6-12.4-12.4-12.4h-2.7v-4.4h2.7
			c9.3,0,16.8,7.5,16.8,16.8v24.7C145.2,271.9,137.7,279.4,128.4,279.5z"/>
		<rect x="121.2" y="165.5" class="st4" width="11.1" height="2.6"/>
		<path class="st4" d="M122.6,144H83v-6.9c0-2,1.6-3.6,3.6-3.6H119c2,0,3.6,1.6,3.6,3.6L122.6,144z"/>
		<path class="st4" d="M128.5,319.1h-51v-18.5h51V319.1z"/>
		<polygon class="st4" points="123,182.3 123,291.5 83.1,291.5 83.1,182.3 		"/>
		<polygon class="st18" points="88.1,179.6 88.1,175.9 117.9,175.9 117.9,179.6 		"/>
		<polygon class="st18" points="88.1,297.9 88.1,294.3 117.9,294.3 117.9,297.9 		"/>
		<rect x="83" y="162.7" class="st4" width="40" height="10.5"/>
	</g>
</g>
</svg>
