<?xml version="1.0" encoding="utf-8"?>
<!-- Generator: Adobe Illustrator 22.1.0, SVG Export Plug-In . SVG Version: 6.00 Build 0)  -->
<svg version="1.1" xmlns="http://www.w3.org/2000/svg" xmlns:xlink="http://www.w3.org/1999/xlink" x="0px" y="0px"
	 viewBox="0 0 400 400" style="enable-background:new 0 0 400 400;" xml:space="preserve">
<style type="text/css">
	.st0{display:none;}
	.st1{display:inline;stroke:#FFFFFF;stroke-miterlimit:10;}
	.st2{fill:#FFFFFF;}
	.st3{opacity:0.75;fill:#FFFFFF;}
</style>
<g id="Layer_2" class="st0">
	<rect x="1" class="st1" width="400" height="400"/>
</g>
<g id="Layer_1">
	<title>process-2</title>
	<desc>Created with Sketch.</desc>
	<g id="Page-1_1_">
		<g id="process-2">
			<g id="Page-1" transform="translate(166.000000, 84.000000)">
				<g id="Group-31" transform="translate(0.000000, 0.140000)">
					<path id="Fill-22" class="st2" d="M46.1,87.4l0,9.9L35,90.8H5c-2.3,0-4.2-1.9-4.2-4.2V69.9c0-2.3,1.9-4.2,4.2-4.2h37
						c2.3,0,4.2,1.9,4.2,4.2C46.2,69.9,46.2,87.2,46.1,87.4"/>
					<path id="Fill-23" class="st2" d="M167.5,130.3l-6-33.2l-4.7-26.3l-1.1-6.2c-0.8-4.6-4.8-7.8-9.3-7.8v0h-12.8h-9.2
						c-6,7-15,11.5-24.9,11.5s-18.9-4.5-24.9-11.5h-1.8v0c-4.5,0-8.5,3.2-9.3,7.8l-1.1,6.2l-4.7,26.3l-1.7,9.5l1.4,0.3
						c3.6,0.7,6.5,3.9,6.7,7.5l0.9,12.9c0.1,1.8-0.4,3.5-1.6,4.8c-1.1,1.2-2.6,1.8-4.3,1.8c-0.6,0-1.2-0.1-1.8-0.3l-5.7-1.6
						c0,4.5,3.2,8.4,7.8,9.3c0.6,0.1,1.1,0.1,1.7,0.1c4.5,0,8.5-3.2,9.3-7.8l9.3-51.8h5.3L70,166.7c-0.3,1.5,0.8,2.8,2.3,2.8H85v53
						c0,5.8,4.7,10.4,10.4,10.4c5.8,0,10.4-4.7,10.4-10.4v-53h6.6v53c0,5.8,4.7,10.4,10.4,10.4c5.8,0,10.4-4.7,10.4-10.4v-53h12.7
						c1.6,0,2.6-1.3,2.4-2.8l-14.8-84.9h5.9l9.3,51.8c0.8,4.6,4.8,7.8,9.3,7.8c0.6,0,1.1,0,1.7-0.1
						C165,140.4,168.5,135.5,167.5,130.3"/>
					<path id="Fill-24" class="st2" d="M45.2,108.4c-1.5,0-2.3,1.2-1.8,2.8l4.2,12.9c0.1,0.2,0.2,0.5,0.3,0.7l0.2,0.3l0.2,0.4
						l0.3,0.4l0.2,0.2c0.1,0.2,0.3,0.3,0.4,0.5l0.1,0.1c0.2,0.2,0.4,0.4,0.6,0.5l0,0c0.6,0.5,1.3,0.9,2,1.1h0l0.3,0.1l5.9,1.6
						c0.3,0.1,0.6,0.1,0.9,0.1c1.4,0,2.4-1.1,2.3-2.8l-0.9-12.9c-0.1-2-1.8-3.9-3.8-4.2l-1.4-0.3l-9.3-1.7
						C45.6,108.4,45.4,108.4,45.2,108.4"/>
					<path id="Fill-25" class="st2" d="M99.4,6C83.2,6,70,19.1,70,35.3c0,16.2,13.1,29.3,29.3,29.3c16.2,0,29.3-13.1,29.3-29.3
						C128.7,19.1,115.6,6,99.4,6 M81.2,50.8c-2.6,0-4.8-2.1-4.8-4.8c0-2.6,2.1-4.8,4.8-4.8c2.6,0,4.8,2.1,4.8,4.8
						C86,48.7,83.9,50.8,81.2,50.8 M100.4,53.7c-2.6,0-4.8-2.1-4.8-4.8c0-2.6,2.1-4.8,4.8-4.8c2.6,0,4.8,2.1,4.8,4.8
						C105.2,51.6,103,53.7,100.4,53.7"/>
					<path id="Fill-26" class="st2" d="M133.5,56.8h-9.2c0,0-8.8,11.5-24.2,11.5c-4.6,0-10.6-0.8-15.3-3.4l-0.3,17l-15.2,88.8
						c-0.3,1.6,0.8,2.9,2.4,2.9h13h21.4h6.8h21.4h13c1.6,0,2.7-1.3,2.4-2.9l-15.2-88.8L133.5,56.8z"/>
					<path id="Fill-27" class="st2" d="M67.9,29.6c0,0,20.1,18.4,47.1,7.6c8.3-3.3,0.2,28.9,0.2,28.9l5.7-1
						c4.7-5,10.5-17.2,11.7-28.5c1-10-2.5-22.2-10.5-28.5C106.2-4.4,74.8-2.8,67.9,29.6"/>
					<path id="Fill-28" class="st2" d="M87.6,173.6h18.5h6.8h21.4h13c1.6,0,2.7-1.3,2.4-2.9l-15.2-88.8L87.6,173.6z"/>
					<path id="Fill-29" class="st2" d="M122.6,233L122.6,233c5.9,0,10.8-4.8,10.8-10.8v-40.7l-21.5,40.7
						C111.9,228.2,116.7,233,122.6,233"/>
					<path id="Fill-30" class="st2" d="M95.5,233L95.5,233c5.9,0,10.8-4.8,10.8-10.8v-40.7l-21.5,40.7C84.7,228.2,89.5,233,95.5,233
						"/>
				</g>
			</g>
		</g>
	</g>
	<g>
		<path class="st3" d="M130.7,253.4c1.4-0.5,2.6-1.4,3.5-2.5c1.7-2,2.5-4.5,2.2-7.1l-0.1-0.4c-0.6-4.8,1.5-9.6,5.4-12.5l16.6-12.2
			c2.4-1.7,3.7-4.5,3.7-7.4l0-4.7c0-5.1-4.2-9.1-9.2-9.1l-9.1,0.1c-7.5,0-13.6-6-13.6-13.5l-0.1-13.3h4.4l0.1,13.3
			c0,5,4.2,9.1,9.2,9.1l9.1-0.1c7.5,0,13.6,6,13.6,13.5l0,4.7c0,4.3-2,8.4-5.5,11l-16.6,12.2c-2.7,2-4.1,5.2-3.7,8.5l0.1,0.4
			c0.5,3.8-0.7,7.7-3.3,10.6c-1.8,2.1-4.2,3.6-6.8,4.2L130.7,253.4z"/>
		<rect x="103.2" y="146.7" class="st3" width="9.8" height="13.4"/>
		<path class="st2" d="M133.4,279.5h-2.7v-4.4h2.7c6.9,0,12.4-5.6,12.4-12.4v-24.7c0-6.9-5.6-12.4-12.4-12.4h-2.7v-4.4h2.7
			c9.3,0,16.8,7.5,16.8,16.8v24.7C150.2,271.9,142.7,279.4,133.4,279.5z"/>
		<rect x="126.2" y="165.5" class="st2" width="11.1" height="2.6"/>
		<path class="st2" d="M127.6,144H88v-6.9c0-2,1.6-3.6,3.6-3.6H124c2,0,3.6,1.6,3.6,3.6L127.6,144z"/>
		<path class="st2" d="M133.5,319.1h-51v-18.5h51V319.1z"/>
		<polygon class="st2" points="128,182.3 128,291.5 88.1,291.5 88.1,182.3 		"/>
		<polygon class="st3" points="93.1,179.6 93.1,175.9 122.9,175.9 122.9,179.6 		"/>
		<polygon class="st3" points="93.1,297.9 93.1,294.3 122.9,294.3 122.9,297.9 		"/>
		<rect x="88" y="162.7" class="st2" width="40" height="10.5"/>
	</g>
</g>
</svg>
